<svg fill="none" height="32" viewBox="0 0 128 128" width="32" xmlns="http://www.w3.org/2000/svg"><path d="M28.48 3.52L3.52 28.486c-2.26 2.26-3.52 5.3-3.52 8.48V122A5.992 5.992 0 006 128h116c3.32 0 6-2.68 6-6.001V6.001C128 2.68 125.32 0 122 0H36.98c-3.18 0-6.24 1.26-8.48 3.52h-.02z" fill="url(#paint0_radial_145_9184)"></path><path d="M51.844 103a19.149 19.149 0 01-8.486-2.164 11.227 11.227 0 01-4.69-4.837 6.737 6.737 0 01-.4-4.81 6.781 6.781 0 012.917-3.854 7.718 7.718 0 015.2-1.003 7.752 7.752 0 014.633 2.563c1.282 1.737 1.328 3.064 2.275 3.064 1.83.028 4.206-13.065 5.525-20.112.548-2.907 1.133-5.897 1.82-8.868a.92.92 0 00-.826-1.133l-5.024-.39a1.663 1.663 0 01-1.096-.53 1.694 1.694 0 01-.455-1.132 4.428 4.428 0 01.232-1.839c.205-.585.53-1.123.966-1.578.474-.381 1.03-.66 1.625-.808a4.41 4.41 0 011.81-.074l1.477.139c1.402.084 1.932.046 2.582-.4.603-.427.752-1.16.938-1.875.269-1.087.529-2.164.798-3.324A71.14 71.14 0 0167.751 36.7c4.568-10.076 12.88-13.808 23.381-10.558 2.061.64 3.928 1.81 5.414 3.38a7.91 7.91 0 011.625 2.655 7.88 7.88 0 01.455 3.074 6.85 6.85 0 01-2.34 4.782 7.326 7.326 0 01-2.498 1.346 7.253 7.253 0 01-2.823.279 7.975 7.975 0 01-5.478-2.786 20.397 20.397 0 01-2.452-4.076c-.26-.51-.51-1.086-.78-1.523-.733-1.365-.975-.455-.975-.455l-4.624 21.422a.922.922 0 00.845 1.114l5.06.325c.372.019.734.167 1.013.428.278.25.464.594.529.965.176.622.204 1.282.074 1.913s-.4 1.226-.798 1.736a3.919 3.919 0 01-1.625.883c-.604.157-1.551.167-2.35.102l-.826-.084-1.087-.111c-2.302-.177-2.618.492-3.147 3.185-.223 1.17-.455 2.34-.669 3.51-1.021 5.283-2.061 10.743-3.52 16.017a37.575 37.575 0 01-5.05 11.087c-3.455 5.08-8.08 7.689-13.27 7.689h.01z" fill="#fff"></path><defs><radialGradient cx="0" cy="0" gradientTransform="rotate(45) scale(181.019)" gradientUnits="userSpaceOnUse" id="paint0_radial_145_9184" r="1"><stop stop-color="#0ECAD4"></stop><stop offset="1" stop-color="#7A45E5"></stop></radialGradient></defs></svg>
